<mxfile host="app.diagrams.net" modified="2022-07-16T18:14:50.311Z" agent="5.0 (Windows NT 10.0; Win64; x64) AppleWebKit/537.36 (KHTML, like Gecko) Chrome/103.0.0.0 Safari/537.36" etag="TtqmJ0JEDmoQKONENQFw" version="20.1.1" type="github">
  <diagram name="Page-1" id="9f46799a-70d6-7492-0946-bef42562c5a5">
    <mxGraphModel dx="1185" dy="581" grid="1" gridSize="10" guides="1" tooltips="1" connect="1" arrows="1" fold="1" page="1" pageScale="1" pageWidth="1100" pageHeight="850" background="none" math="0" shadow="0">
      <root>
        <mxCell id="0" />
        <mxCell id="1" parent="0" />
        <mxCell id="78961159f06e98e8-17" value="Users" style="swimlane;html=1;fontStyle=1;align=center;verticalAlign=top;childLayout=stackLayout;horizontal=1;startSize=26;horizontalStack=0;resizeParent=1;resizeLast=0;collapsible=1;marginBottom=0;swimlaneFillColor=#ffffff;rounded=0;shadow=0;comic=0;labelBackgroundColor=none;strokeWidth=1;fillColor=none;fontFamily=Verdana;fontSize=12" parent="1" vertex="1">
          <mxGeometry x="90" y="30" width="160" height="320" as="geometry" />
        </mxCell>
        <mxCell id="78961159f06e98e8-21" value="+ id: pk" style="text;html=1;strokeColor=none;fillColor=none;align=left;verticalAlign=top;spacingLeft=4;spacingRight=4;whiteSpace=wrap;overflow=hidden;rotatable=0;points=[[0,0.5],[1,0.5]];portConstraint=eastwest;" parent="78961159f06e98e8-17" vertex="1">
          <mxGeometry y="26" width="160" height="26" as="geometry" />
        </mxCell>
        <mxCell id="78961159f06e98e8-23" value="+ uuid: text" style="text;html=1;strokeColor=none;fillColor=none;align=left;verticalAlign=top;spacingLeft=4;spacingRight=4;whiteSpace=wrap;overflow=hidden;rotatable=0;points=[[0,0.5],[1,0.5]];portConstraint=eastwest;" parent="78961159f06e98e8-17" vertex="1">
          <mxGeometry y="52" width="160" height="26" as="geometry" />
        </mxCell>
        <mxCell id="78961159f06e98e8-25" value="+ name: text" style="text;html=1;strokeColor=none;fillColor=none;align=left;verticalAlign=top;spacingLeft=4;spacingRight=4;whiteSpace=wrap;overflow=hidden;rotatable=0;points=[[0,0.5],[1,0.5]];portConstraint=eastwest;" parent="78961159f06e98e8-17" vertex="1">
          <mxGeometry y="78" width="160" height="26" as="geometry" />
        </mxCell>
        <mxCell id="78961159f06e98e8-26" value="+ description: text" style="text;html=1;strokeColor=none;fillColor=none;align=left;verticalAlign=top;spacingLeft=4;spacingRight=4;whiteSpace=wrap;overflow=hidden;rotatable=0;points=[[0,0.5],[1,0.5]];portConstraint=eastwest;" parent="78961159f06e98e8-17" vertex="1">
          <mxGeometry y="104" width="160" height="26" as="geometry" />
        </mxCell>
        <mxCell id="78961159f06e98e8-24" value="+ phone: text" style="text;html=1;strokeColor=none;fillColor=none;align=left;verticalAlign=top;spacingLeft=4;spacingRight=4;whiteSpace=wrap;overflow=hidden;rotatable=0;points=[[0,0.5],[1,0.5]];portConstraint=eastwest;" parent="78961159f06e98e8-17" vertex="1">
          <mxGeometry y="130" width="160" height="26" as="geometry" />
        </mxCell>
        <mxCell id="UkQElBtz6f4SAQmrH-bA-6" value="+ photo: text" style="text;html=1;strokeColor=none;fillColor=none;align=left;verticalAlign=top;spacingLeft=4;spacingRight=4;whiteSpace=wrap;overflow=hidden;rotatable=0;points=[[0,0.5],[1,0.5]];portConstraint=eastwest;" vertex="1" parent="78961159f06e98e8-17">
          <mxGeometry y="156" width="160" height="26" as="geometry" />
        </mxCell>
        <mxCell id="UkQElBtz6f4SAQmrH-bA-7" value="+ walpaler: text" style="text;html=1;strokeColor=none;fillColor=none;align=left;verticalAlign=top;spacingLeft=4;spacingRight=4;whiteSpace=wrap;overflow=hidden;rotatable=0;points=[[0,0.5],[1,0.5]];portConstraint=eastwest;" vertex="1" parent="78961159f06e98e8-17">
          <mxGeometry y="182" width="160" height="26" as="geometry" />
        </mxCell>
        <mxCell id="UkQElBtz6f4SAQmrH-bA-10" value="+ createdTime: timestamp" style="text;html=1;strokeColor=none;fillColor=none;align=left;verticalAlign=top;spacingLeft=4;spacingRight=4;whiteSpace=wrap;overflow=hidden;rotatable=0;points=[[0,0.5],[1,0.5]];portConstraint=eastwest;" vertex="1" parent="78961159f06e98e8-17">
          <mxGeometry y="208" width="160" height="26" as="geometry" />
        </mxCell>
        <mxCell id="UkQElBtz6f4SAQmrH-bA-9" value="+ updatedTime: timestamp" style="text;html=1;strokeColor=none;fillColor=none;align=left;verticalAlign=top;spacingLeft=4;spacingRight=4;whiteSpace=wrap;overflow=hidden;rotatable=0;points=[[0,0.5],[1,0.5]];portConstraint=eastwest;" vertex="1" parent="78961159f06e98e8-17">
          <mxGeometry y="234" width="160" height="26" as="geometry" />
        </mxCell>
        <mxCell id="78961159f06e98e8-19" value="" style="line;html=1;strokeWidth=1;fillColor=none;align=left;verticalAlign=middle;spacingTop=-1;spacingLeft=3;spacingRight=3;rotatable=0;labelPosition=right;points=[];portConstraint=eastwest;" parent="78961159f06e98e8-17" vertex="1">
          <mxGeometry y="260" width="160" height="8" as="geometry" />
        </mxCell>
        <mxCell id="78961159f06e98e8-20" value="+ register: insert" style="text;html=1;strokeColor=none;fillColor=none;align=left;verticalAlign=top;spacingLeft=4;spacingRight=4;whiteSpace=wrap;overflow=hidden;rotatable=0;points=[[0,0.5],[1,0.5]];portConstraint=eastwest;" parent="78961159f06e98e8-17" vertex="1">
          <mxGeometry y="268" width="160" height="26" as="geometry" />
        </mxCell>
        <mxCell id="78961159f06e98e8-27" value="+ update: update" style="text;html=1;strokeColor=none;fillColor=none;align=left;verticalAlign=top;spacingLeft=4;spacingRight=4;whiteSpace=wrap;overflow=hidden;rotatable=0;points=[[0,0.5],[1,0.5]];portConstraint=eastwest;" parent="78961159f06e98e8-17" vertex="1">
          <mxGeometry y="294" width="160" height="26" as="geometry" />
        </mxCell>
        <mxCell id="UkQElBtz6f4SAQmrH-bA-13" value="messages" style="swimlane;html=1;fontStyle=1;align=center;verticalAlign=top;childLayout=stackLayout;horizontal=1;startSize=26;horizontalStack=0;resizeParent=1;resizeLast=0;collapsible=1;marginBottom=0;swimlaneFillColor=#ffffff;rounded=0;shadow=0;comic=0;labelBackgroundColor=none;strokeWidth=1;fillColor=none;fontFamily=Verdana;fontSize=12" vertex="1" parent="1">
          <mxGeometry x="90" y="400" width="160" height="300" as="geometry" />
        </mxCell>
        <mxCell id="UkQElBtz6f4SAQmrH-bA-14" value="+ id: pk" style="text;html=1;strokeColor=none;fillColor=none;align=left;verticalAlign=top;spacingLeft=4;spacingRight=4;whiteSpace=wrap;overflow=hidden;rotatable=0;points=[[0,0.5],[1,0.5]];portConstraint=eastwest;" vertex="1" parent="UkQElBtz6f4SAQmrH-bA-13">
          <mxGeometry y="26" width="160" height="26" as="geometry" />
        </mxCell>
        <mxCell id="UkQElBtz6f4SAQmrH-bA-15" value="+ from: userId(int)" style="text;html=1;strokeColor=none;fillColor=none;align=left;verticalAlign=top;spacingLeft=4;spacingRight=4;whiteSpace=wrap;overflow=hidden;rotatable=0;points=[[0,0.5],[1,0.5]];portConstraint=eastwest;" vertex="1" parent="UkQElBtz6f4SAQmrH-bA-13">
          <mxGeometry y="52" width="160" height="26" as="geometry" />
        </mxCell>
        <mxCell id="UkQElBtz6f4SAQmrH-bA-16" value="+ to: userId(int)" style="text;html=1;strokeColor=none;fillColor=none;align=left;verticalAlign=top;spacingLeft=4;spacingRight=4;whiteSpace=wrap;overflow=hidden;rotatable=0;points=[[0,0.5],[1,0.5]];portConstraint=eastwest;" vertex="1" parent="UkQElBtz6f4SAQmrH-bA-13">
          <mxGeometry y="78" width="160" height="26" as="geometry" />
        </mxCell>
        <mxCell id="UkQElBtz6f4SAQmrH-bA-17" value="+ message: text" style="text;html=1;strokeColor=none;fillColor=none;align=left;verticalAlign=top;spacingLeft=4;spacingRight=4;whiteSpace=wrap;overflow=hidden;rotatable=0;points=[[0,0.5],[1,0.5]];portConstraint=eastwest;" vertex="1" parent="UkQElBtz6f4SAQmrH-bA-13">
          <mxGeometry y="104" width="160" height="26" as="geometry" />
        </mxCell>
        <mxCell id="UkQElBtz6f4SAQmrH-bA-18" value="+ messageStatus: int" style="text;html=1;strokeColor=none;fillColor=none;align=left;verticalAlign=top;spacingLeft=4;spacingRight=4;whiteSpace=wrap;overflow=hidden;rotatable=0;points=[[0,0.5],[1,0.5]];portConstraint=eastwest;" vertex="1" parent="UkQElBtz6f4SAQmrH-bA-13">
          <mxGeometry y="130" width="160" height="26" as="geometry" />
        </mxCell>
        <mxCell id="UkQElBtz6f4SAQmrH-bA-19" value="+ status: int" style="text;html=1;strokeColor=none;fillColor=none;align=left;verticalAlign=top;spacingLeft=4;spacingRight=4;whiteSpace=wrap;overflow=hidden;rotatable=0;points=[[0,0.5],[1,0.5]];portConstraint=eastwest;" vertex="1" parent="UkQElBtz6f4SAQmrH-bA-13">
          <mxGeometry y="156" width="160" height="26" as="geometry" />
        </mxCell>
        <mxCell id="UkQElBtz6f4SAQmrH-bA-21" value="+ createdTime: timestamp" style="text;html=1;strokeColor=none;fillColor=none;align=left;verticalAlign=top;spacingLeft=4;spacingRight=4;whiteSpace=wrap;overflow=hidden;rotatable=0;points=[[0,0.5],[1,0.5]];portConstraint=eastwest;" vertex="1" parent="UkQElBtz6f4SAQmrH-bA-13">
          <mxGeometry y="182" width="160" height="26" as="geometry" />
        </mxCell>
        <mxCell id="UkQElBtz6f4SAQmrH-bA-22" value="+ updatedTime: timestamp" style="text;html=1;strokeColor=none;fillColor=none;align=left;verticalAlign=top;spacingLeft=4;spacingRight=4;whiteSpace=wrap;overflow=hidden;rotatable=0;points=[[0,0.5],[1,0.5]];portConstraint=eastwest;" vertex="1" parent="UkQElBtz6f4SAQmrH-bA-13">
          <mxGeometry y="208" width="160" height="26" as="geometry" />
        </mxCell>
        <mxCell id="UkQElBtz6f4SAQmrH-bA-23" value="" style="line;html=1;strokeWidth=1;fillColor=none;align=left;verticalAlign=middle;spacingTop=-1;spacingLeft=3;spacingRight=3;rotatable=0;labelPosition=right;points=[];portConstraint=eastwest;" vertex="1" parent="UkQElBtz6f4SAQmrH-bA-13">
          <mxGeometry y="234" width="160" height="8" as="geometry" />
        </mxCell>
        <mxCell id="UkQElBtz6f4SAQmrH-bA-24" value="+ sendMessage: insert" style="text;html=1;strokeColor=none;fillColor=none;align=left;verticalAlign=top;spacingLeft=4;spacingRight=4;whiteSpace=wrap;overflow=hidden;rotatable=0;points=[[0,0.5],[1,0.5]];portConstraint=eastwest;" vertex="1" parent="UkQElBtz6f4SAQmrH-bA-13">
          <mxGeometry y="242" width="160" height="26" as="geometry" />
        </mxCell>
        <mxCell id="UkQElBtz6f4SAQmrH-bA-25" value="+ updateMessage: update" style="text;html=1;strokeColor=none;fillColor=none;align=left;verticalAlign=top;spacingLeft=4;spacingRight=4;whiteSpace=wrap;overflow=hidden;rotatable=0;points=[[0,0.5],[1,0.5]];portConstraint=eastwest;" vertex="1" parent="UkQElBtz6f4SAQmrH-bA-13">
          <mxGeometry y="268" width="160" height="26" as="geometry" />
        </mxCell>
        <mxCell id="UkQElBtz6f4SAQmrH-bA-29" value="attachments" style="swimlane;html=1;fontStyle=1;align=center;verticalAlign=top;childLayout=stackLayout;horizontal=1;startSize=26;horizontalStack=0;resizeParent=1;resizeLast=0;collapsible=1;marginBottom=0;swimlaneFillColor=#ffffff;rounded=0;shadow=0;comic=0;labelBackgroundColor=none;strokeWidth=1;fillColor=none;fontFamily=Verdana;fontSize=12" vertex="1" parent="1">
          <mxGeometry x="330" y="400" width="160" height="250" as="geometry" />
        </mxCell>
        <mxCell id="UkQElBtz6f4SAQmrH-bA-30" value="+ id: pk" style="text;html=1;strokeColor=none;fillColor=none;align=left;verticalAlign=top;spacingLeft=4;spacingRight=4;whiteSpace=wrap;overflow=hidden;rotatable=0;points=[[0,0.5],[1,0.5]];portConstraint=eastwest;" vertex="1" parent="UkQElBtz6f4SAQmrH-bA-29">
          <mxGeometry y="26" width="160" height="26" as="geometry" />
        </mxCell>
        <mxCell id="UkQElBtz6f4SAQmrH-bA-31" value="+ messageId: int" style="text;html=1;strokeColor=none;fillColor=none;align=left;verticalAlign=top;spacingLeft=4;spacingRight=4;whiteSpace=wrap;overflow=hidden;rotatable=0;points=[[0,0.5],[1,0.5]];portConstraint=eastwest;" vertex="1" parent="UkQElBtz6f4SAQmrH-bA-29">
          <mxGeometry y="52" width="160" height="26" as="geometry" />
        </mxCell>
        <mxCell id="UkQElBtz6f4SAQmrH-bA-32" value="+ type: int" style="text;html=1;strokeColor=none;fillColor=none;align=left;verticalAlign=top;spacingLeft=4;spacingRight=4;whiteSpace=wrap;overflow=hidden;rotatable=0;points=[[0,0.5],[1,0.5]];portConstraint=eastwest;" vertex="1" parent="UkQElBtz6f4SAQmrH-bA-29">
          <mxGeometry y="78" width="160" height="26" as="geometry" />
        </mxCell>
        <mxCell id="UkQElBtz6f4SAQmrH-bA-33" value="+ file: text" style="text;html=1;strokeColor=none;fillColor=none;align=left;verticalAlign=top;spacingLeft=4;spacingRight=4;whiteSpace=wrap;overflow=hidden;rotatable=0;points=[[0,0.5],[1,0.5]];portConstraint=eastwest;" vertex="1" parent="UkQElBtz6f4SAQmrH-bA-29">
          <mxGeometry y="104" width="160" height="26" as="geometry" />
        </mxCell>
        <mxCell id="UkQElBtz6f4SAQmrH-bA-35" value="+ photo: text" style="text;html=1;strokeColor=none;fillColor=none;align=left;verticalAlign=top;spacingLeft=4;spacingRight=4;whiteSpace=wrap;overflow=hidden;rotatable=0;points=[[0,0.5],[1,0.5]];portConstraint=eastwest;" vertex="1" parent="UkQElBtz6f4SAQmrH-bA-29">
          <mxGeometry y="130" width="160" height="26" as="geometry" />
        </mxCell>
        <mxCell id="UkQElBtz6f4SAQmrH-bA-37" value="+ createdTime: timestamp" style="text;html=1;strokeColor=none;fillColor=none;align=left;verticalAlign=top;spacingLeft=4;spacingRight=4;whiteSpace=wrap;overflow=hidden;rotatable=0;points=[[0,0.5],[1,0.5]];portConstraint=eastwest;" vertex="1" parent="UkQElBtz6f4SAQmrH-bA-29">
          <mxGeometry y="156" width="160" height="26" as="geometry" />
        </mxCell>
        <mxCell id="UkQElBtz6f4SAQmrH-bA-38" value="+ updatedTime: timestamp" style="text;html=1;strokeColor=none;fillColor=none;align=left;verticalAlign=top;spacingLeft=4;spacingRight=4;whiteSpace=wrap;overflow=hidden;rotatable=0;points=[[0,0.5],[1,0.5]];portConstraint=eastwest;" vertex="1" parent="UkQElBtz6f4SAQmrH-bA-29">
          <mxGeometry y="182" width="160" height="26" as="geometry" />
        </mxCell>
        <mxCell id="UkQElBtz6f4SAQmrH-bA-39" value="" style="line;html=1;strokeWidth=1;fillColor=none;align=left;verticalAlign=middle;spacingTop=-1;spacingLeft=3;spacingRight=3;rotatable=0;labelPosition=right;points=[];portConstraint=eastwest;" vertex="1" parent="UkQElBtz6f4SAQmrH-bA-29">
          <mxGeometry y="208" width="160" height="8" as="geometry" />
        </mxCell>
        <mxCell id="UkQElBtz6f4SAQmrH-bA-67" value="+ addAttachment: insert" style="text;html=1;strokeColor=none;fillColor=none;align=left;verticalAlign=top;spacingLeft=4;spacingRight=4;whiteSpace=wrap;overflow=hidden;rotatable=0;points=[[0,0.5],[1,0.5]];portConstraint=eastwest;" vertex="1" parent="UkQElBtz6f4SAQmrH-bA-29">
          <mxGeometry y="216" width="160" height="26" as="geometry" />
        </mxCell>
        <mxCell id="UkQElBtz6f4SAQmrH-bA-53" value="blocks" style="swimlane;html=1;fontStyle=1;align=center;verticalAlign=top;childLayout=stackLayout;horizontal=1;startSize=26;horizontalStack=0;resizeParent=1;resizeLast=0;collapsible=1;marginBottom=0;swimlaneFillColor=#ffffff;rounded=0;shadow=0;comic=0;labelBackgroundColor=none;strokeWidth=1;fillColor=none;fontFamily=Verdana;fontSize=12" vertex="1" parent="1">
          <mxGeometry x="350" y="30" width="160" height="190" as="geometry" />
        </mxCell>
        <mxCell id="UkQElBtz6f4SAQmrH-bA-54" value="+ id: pk" style="text;html=1;strokeColor=none;fillColor=none;align=left;verticalAlign=top;spacingLeft=4;spacingRight=4;whiteSpace=wrap;overflow=hidden;rotatable=0;points=[[0,0.5],[1,0.5]];portConstraint=eastwest;" vertex="1" parent="UkQElBtz6f4SAQmrH-bA-53">
          <mxGeometry y="26" width="160" height="26" as="geometry" />
        </mxCell>
        <mxCell id="UkQElBtz6f4SAQmrH-bA-55" value="+ from: userId(int)" style="text;html=1;strokeColor=none;fillColor=none;align=left;verticalAlign=top;spacingLeft=4;spacingRight=4;whiteSpace=wrap;overflow=hidden;rotatable=0;points=[[0,0.5],[1,0.5]];portConstraint=eastwest;" vertex="1" parent="UkQElBtz6f4SAQmrH-bA-53">
          <mxGeometry y="52" width="160" height="26" as="geometry" />
        </mxCell>
        <mxCell id="UkQElBtz6f4SAQmrH-bA-56" value="+ to: userId(int)" style="text;html=1;strokeColor=none;fillColor=none;align=left;verticalAlign=top;spacingLeft=4;spacingRight=4;whiteSpace=wrap;overflow=hidden;rotatable=0;points=[[0,0.5],[1,0.5]];portConstraint=eastwest;" vertex="1" parent="UkQElBtz6f4SAQmrH-bA-53">
          <mxGeometry y="78" width="160" height="26" as="geometry" />
        </mxCell>
        <mxCell id="UkQElBtz6f4SAQmrH-bA-60" value="+ createdTime: timestamp" style="text;html=1;strokeColor=none;fillColor=none;align=left;verticalAlign=top;spacingLeft=4;spacingRight=4;whiteSpace=wrap;overflow=hidden;rotatable=0;points=[[0,0.5],[1,0.5]];portConstraint=eastwest;" vertex="1" parent="UkQElBtz6f4SAQmrH-bA-53">
          <mxGeometry y="104" width="160" height="26" as="geometry" />
        </mxCell>
        <mxCell id="UkQElBtz6f4SAQmrH-bA-62" value="" style="line;html=1;strokeWidth=1;fillColor=none;align=left;verticalAlign=middle;spacingTop=-1;spacingLeft=3;spacingRight=3;rotatable=0;labelPosition=right;points=[];portConstraint=eastwest;" vertex="1" parent="UkQElBtz6f4SAQmrH-bA-53">
          <mxGeometry y="130" width="160" height="8" as="geometry" />
        </mxCell>
        <mxCell id="UkQElBtz6f4SAQmrH-bA-63" value="+ block: insert" style="text;html=1;strokeColor=none;fillColor=none;align=left;verticalAlign=top;spacingLeft=4;spacingRight=4;whiteSpace=wrap;overflow=hidden;rotatable=0;points=[[0,0.5],[1,0.5]];portConstraint=eastwest;" vertex="1" parent="UkQElBtz6f4SAQmrH-bA-53">
          <mxGeometry y="138" width="160" height="26" as="geometry" />
        </mxCell>
        <mxCell id="UkQElBtz6f4SAQmrH-bA-64" value="+ unBlock: delete" style="text;html=1;strokeColor=none;fillColor=none;align=left;verticalAlign=top;spacingLeft=4;spacingRight=4;whiteSpace=wrap;overflow=hidden;rotatable=0;points=[[0,0.5],[1,0.5]];portConstraint=eastwest;" vertex="1" parent="UkQElBtz6f4SAQmrH-bA-53">
          <mxGeometry y="164" width="160" height="26" as="geometry" />
        </mxCell>
        <mxCell id="UkQElBtz6f4SAQmrH-bA-69" value="messageLogs" style="swimlane;html=1;fontStyle=1;align=center;verticalAlign=top;childLayout=stackLayout;horizontal=1;startSize=26;horizontalStack=0;resizeParent=1;resizeLast=0;collapsible=1;marginBottom=0;swimlaneFillColor=#ffffff;rounded=0;shadow=0;comic=0;labelBackgroundColor=none;strokeWidth=1;fillColor=none;fontFamily=Verdana;fontSize=12" vertex="1" parent="1">
          <mxGeometry x="570" y="420" width="160" height="170" as="geometry" />
        </mxCell>
        <mxCell id="UkQElBtz6f4SAQmrH-bA-70" value="+ id: pk" style="text;html=1;strokeColor=none;fillColor=none;align=left;verticalAlign=top;spacingLeft=4;spacingRight=4;whiteSpace=wrap;overflow=hidden;rotatable=0;points=[[0,0.5],[1,0.5]];portConstraint=eastwest;" vertex="1" parent="UkQElBtz6f4SAQmrH-bA-69">
          <mxGeometry y="26" width="160" height="26" as="geometry" />
        </mxCell>
        <mxCell id="UkQElBtz6f4SAQmrH-bA-77" value="+ messageId: int" style="text;html=1;strokeColor=none;fillColor=none;align=left;verticalAlign=top;spacingLeft=4;spacingRight=4;whiteSpace=wrap;overflow=hidden;rotatable=0;points=[[0,0.5],[1,0.5]];portConstraint=eastwest;" vertex="1" parent="UkQElBtz6f4SAQmrH-bA-69">
          <mxGeometry y="52" width="160" height="26" as="geometry" />
        </mxCell>
        <mxCell id="UkQElBtz6f4SAQmrH-bA-78" value="+ type: int" style="text;html=1;strokeColor=none;fillColor=none;align=left;verticalAlign=top;spacingLeft=4;spacingRight=4;whiteSpace=wrap;overflow=hidden;rotatable=0;points=[[0,0.5],[1,0.5]];portConstraint=eastwest;" vertex="1" parent="UkQElBtz6f4SAQmrH-bA-69">
          <mxGeometry y="78" width="160" height="26" as="geometry" />
        </mxCell>
        <mxCell id="UkQElBtz6f4SAQmrH-bA-73" value="+ createdTime: timestamp" style="text;html=1;strokeColor=none;fillColor=none;align=left;verticalAlign=top;spacingLeft=4;spacingRight=4;whiteSpace=wrap;overflow=hidden;rotatable=0;points=[[0,0.5],[1,0.5]];portConstraint=eastwest;" vertex="1" parent="UkQElBtz6f4SAQmrH-bA-69">
          <mxGeometry y="104" width="160" height="26" as="geometry" />
        </mxCell>
        <mxCell id="UkQElBtz6f4SAQmrH-bA-74" value="" style="line;html=1;strokeWidth=1;fillColor=none;align=left;verticalAlign=middle;spacingTop=-1;spacingLeft=3;spacingRight=3;rotatable=0;labelPosition=right;points=[];portConstraint=eastwest;" vertex="1" parent="UkQElBtz6f4SAQmrH-bA-69">
          <mxGeometry y="130" width="160" height="8" as="geometry" />
        </mxCell>
        <mxCell id="UkQElBtz6f4SAQmrH-bA-75" value="+ addLog: insert" style="text;html=1;strokeColor=none;fillColor=none;align=left;verticalAlign=top;spacingLeft=4;spacingRight=4;whiteSpace=wrap;overflow=hidden;rotatable=0;points=[[0,0.5],[1,0.5]];portConstraint=eastwest;" vertex="1" parent="UkQElBtz6f4SAQmrH-bA-69">
          <mxGeometry y="138" width="160" height="26" as="geometry" />
        </mxCell>
        <mxCell id="UkQElBtz6f4SAQmrH-bA-79" value="devices" style="swimlane;html=1;fontStyle=1;align=center;verticalAlign=top;childLayout=stackLayout;horizontal=1;startSize=26;horizontalStack=0;resizeParent=1;resizeLast=0;collapsible=1;marginBottom=0;swimlaneFillColor=#ffffff;rounded=0;shadow=0;comic=0;labelBackgroundColor=none;strokeWidth=1;fillColor=none;fontFamily=Verdana;fontSize=12" vertex="1" parent="1">
          <mxGeometry x="760" y="410" width="160" height="190" as="geometry" />
        </mxCell>
        <mxCell id="UkQElBtz6f4SAQmrH-bA-80" value="+ id: pk" style="text;html=1;strokeColor=none;fillColor=none;align=left;verticalAlign=top;spacingLeft=4;spacingRight=4;whiteSpace=wrap;overflow=hidden;rotatable=0;points=[[0,0.5],[1,0.5]];portConstraint=eastwest;" vertex="1" parent="UkQElBtz6f4SAQmrH-bA-79">
          <mxGeometry y="26" width="160" height="26" as="geometry" />
        </mxCell>
        <mxCell id="UkQElBtz6f4SAQmrH-bA-81" value="+ userId: int" style="text;html=1;strokeColor=none;fillColor=none;align=left;verticalAlign=top;spacingLeft=4;spacingRight=4;whiteSpace=wrap;overflow=hidden;rotatable=0;points=[[0,0.5],[1,0.5]];portConstraint=eastwest;" vertex="1" parent="UkQElBtz6f4SAQmrH-bA-79">
          <mxGeometry y="52" width="160" height="26" as="geometry" />
        </mxCell>
        <mxCell id="UkQElBtz6f4SAQmrH-bA-86" value="+ token: tesxt" style="text;html=1;strokeColor=none;fillColor=none;align=left;verticalAlign=top;spacingLeft=4;spacingRight=4;whiteSpace=wrap;overflow=hidden;rotatable=0;points=[[0,0.5],[1,0.5]];portConstraint=eastwest;" vertex="1" parent="UkQElBtz6f4SAQmrH-bA-79">
          <mxGeometry y="78" width="160" height="26" as="geometry" />
        </mxCell>
        <mxCell id="UkQElBtz6f4SAQmrH-bA-82" value="+ type: int" style="text;html=1;strokeColor=none;fillColor=none;align=left;verticalAlign=top;spacingLeft=4;spacingRight=4;whiteSpace=wrap;overflow=hidden;rotatable=0;points=[[0,0.5],[1,0.5]];portConstraint=eastwest;" vertex="1" parent="UkQElBtz6f4SAQmrH-bA-79">
          <mxGeometry y="104" width="160" height="26" as="geometry" />
        </mxCell>
        <mxCell id="UkQElBtz6f4SAQmrH-bA-83" value="+ createdTime: timestamp" style="text;html=1;strokeColor=none;fillColor=none;align=left;verticalAlign=top;spacingLeft=4;spacingRight=4;whiteSpace=wrap;overflow=hidden;rotatable=0;points=[[0,0.5],[1,0.5]];portConstraint=eastwest;" vertex="1" parent="UkQElBtz6f4SAQmrH-bA-79">
          <mxGeometry y="130" width="160" height="26" as="geometry" />
        </mxCell>
        <mxCell id="UkQElBtz6f4SAQmrH-bA-84" value="" style="line;html=1;strokeWidth=1;fillColor=none;align=left;verticalAlign=middle;spacingTop=-1;spacingLeft=3;spacingRight=3;rotatable=0;labelPosition=right;points=[];portConstraint=eastwest;" vertex="1" parent="UkQElBtz6f4SAQmrH-bA-79">
          <mxGeometry y="156" width="160" height="8" as="geometry" />
        </mxCell>
        <mxCell id="UkQElBtz6f4SAQmrH-bA-85" value="+ addToken: insert" style="text;html=1;strokeColor=none;fillColor=none;align=left;verticalAlign=top;spacingLeft=4;spacingRight=4;whiteSpace=wrap;overflow=hidden;rotatable=0;points=[[0,0.5],[1,0.5]];portConstraint=eastwest;" vertex="1" parent="UkQElBtz6f4SAQmrH-bA-79">
          <mxGeometry y="164" width="160" height="26" as="geometry" />
        </mxCell>
      </root>
    </mxGraphModel>
  </diagram>
</mxfile>
